<?xml version="1.0" encoding="utf-8"?>
<!-- Generator: Adobe Illustrator 17.0.0, SVG Export Plug-In . SVG Version: 6.00 Build 0)  -->
<!DOCTYPE svg PUBLIC "-//W3C//DTD SVG 1.1//EN" "http://www.w3.org/Graphics/SVG/1.1/DTD/svg11.dtd">
<svg version="1.1" id="GLYPHICONS.com" xmlns="http://www.w3.org/2000/svg" xmlns:xlink="http://www.w3.org/1999/xlink" x="0px"
	 y="0px" width="112px" height="20px" viewBox="0 0 112 20" enable-background="new 0 0 112 20" xml:space="preserve">
<g>
	<g>
		<g>
			<path fill="#FFFFFF" d="M19,17.9c0,0.6-0.5,1.1-1.1,1.1H3.1C2.5,19,2,18.5,2,17.9V3.1C2,2.5,2.5,2,3.1,2h14.7
				C18.5,2,19,2.5,19,3.1V17.9z"/>
		</g>
		<g>
			<path fill="#BC2328" d="M19,16.9c0,0.6-0.5,1.1-1.1,1.1H3.1C2.5,18,2,17.5,2,16.9V2.1C2,1.5,2.5,1,3.1,1h14.7
				C18.5,1,19,1.5,19,2.1V16.9z"/>
		</g>
	</g>
	<g>
		<g>
			<path fill="#A00000" d="M15.7,7H12V3.4C12,3.1,12,3,11.7,3H9.4C9.1,3,9,3.1,9,3.4V7H5.3C5,7,5,7.1,5,7.5v2.2C5,9.9,5,10,5.3,10H9
				v3.6C9,13.9,9.1,14,9.4,14h2.3c0.3,0,0.3-0.1,0.3-0.4V10h3.7C16,10,16,9.9,16,9.6V7.5C16,7.1,16,7,15.7,7z"/>
		</g>
		<g>
			<path fill="#FFFFFF" d="M15.7,8H12V4.4C12,4.1,12,4,11.7,4H9.4C9.1,4,9,4.1,9,4.4V8H5.3C5,8,5,8.1,5,8.5v2.2C5,10.9,5,11,5.3,11
				H9v3.6C9,14.9,9.1,15,9.4,15h2.3c0.3,0,0.3-0.1,0.3-0.4V11h3.7c0.3,0,0.3-0.1,0.3-0.4V8.5C16,8.1,16,8,15.7,8z"/>
		</g>
	</g>
</g>
<g>
	<g>
		<path fill="#FFFFFF" d="M21.2,5.1h9v2.4h-6.2v3h5.4v2.2h-5.4V18h-2.8V5.1z"/>
		<path fill="#FFFFFF" d="M30.6,5.1h2.8V18h-2.8V5.1z"/>
		<path fill="#FFFFFF" d="M34.5,5.1h2.8v10.5h6.3V18h-9.1V5.1z"/>
		<path fill="#FFFFFF" d="M43.8,5.1h9.6v2.4h-6.8v2.8h6.2v2.2h-6.2v3.2h6.9V18h-9.8V5.1z"/>
		<path fill="#FFFFFF" d="M57,7.5h-3.9V5.1h10.5v2.4h-3.9V18H57V7.5z"/>
		<path fill="#FFFFFF" d="M67.5,13l-4.7-7.8H66l3,5.1l3-5.1h3.2l-4.8,7.9V18h-2.8V13z"/>
		<path fill="#FFFFFF" d="M74.8,5.1h5.8c3.2,0,4.4,2,4.4,4.1s-1.2,4.1-4.4,4.1h-3V18h-2.8V5.1z M77.7,11.2h2.2
			c1.3,0,2.5-0.3,2.5-1.9s-1.2-1.9-2.5-1.9h-2.2V11.2z"/>
		<path fill="#FFFFFF" d="M85.5,5.1h9.6v2.4h-6.8v2.8h6.2v2.2h-6.2v3.2h6.9V18h-9.8V5.1z"/>
		<path fill="#FFFFFF" d="M97.7,13.7c0,1.7,1.3,2.4,2.8,2.4c1,0,2.5-0.3,2.5-1.6c0-1.4-1.9-1.6-3.8-2.1c-1.9-0.5-3.8-1.2-3.8-3.7
			c0-2.6,2.5-3.9,4.8-3.9c2.7,0,5.1,1.2,5.1,4.1h-2.7c-0.1-1.5-1.2-1.9-2.5-1.9c-0.9,0-1.9,0.4-1.9,1.5c0,1,0.6,1.1,3.8,1.9
			c0.9,0.2,3.8,0.8,3.8,3.7c0,2.4-1.9,4.1-5.3,4.1c-2.8,0-5.5-1.4-5.5-4.6H97.7z"/>
	</g>
	<g>
		<g>
			<path d="M21.2,4.1h9v2.4h-6.2v3h5.4v2.2h-5.4V17h-2.8V4.1z"/>
			<path d="M30.6,4.1h2.8V17h-2.8V4.1z"/>
			<path d="M34.5,4.1h2.8v10.5h6.3V17h-9.1V4.1z"/>
			<path d="M43.8,4.1h9.6v2.4h-6.8v2.8h6.2v2.2h-6.2v3.2h6.9V17h-9.8V4.1z"/>
			<path d="M57,6.5h-3.9V4.1h10.5v2.4h-3.9V17H57V6.5z"/>
			<path d="M67.5,12l-4.7-7.8H66l3,5.1l3-5.1h3.2l-4.8,7.9V17h-2.8V12z"/>
			<path d="M74.8,4.1h5.8c3.2,0,4.4,2,4.4,4.1s-1.2,4.1-4.4,4.1h-3V17h-2.8V4.1z M77.7,10.2h2.2c1.3,0,2.5-0.3,2.5-1.9
				s-1.2-1.9-2.5-1.9h-2.2V10.2z"/>
			<path d="M85.5,4.1h9.6v2.4h-6.8v2.8h6.2v2.2h-6.2v3.2h6.9V17h-9.8V4.1z"/>
			<path d="M97.7,12.7c0,1.7,1.3,2.4,2.8,2.4c1,0,2.5-0.3,2.5-1.6c0-1.4-1.9-1.6-3.8-2.1c-1.9-0.5-3.8-1.2-3.8-3.7
				c0-2.6,2.5-3.9,4.8-3.9c2.7,0,5.1,1.2,5.1,4.1h-2.7c-0.1-1.5-1.2-1.9-2.5-1.9c-0.9,0-1.9,0.4-1.9,1.5c0,1,0.6,1.1,3.8,1.9
				c0.9,0.2,3.8,0.8,3.8,3.7c0,2.4-1.9,4.1-5.3,4.1c-2.8,0-5.5-1.4-5.5-4.6H97.7z"/>
		</g>
	</g>
</g>
<g>
</g>
<g>
</g>
<g>
</g>
<g>
</g>
<g>
</g>
<g>
</g>
<g>
</g>
<g>
</g>
<g>
</g>
<g>
</g>
<g>
</g>
<g>
</g>
<g>
</g>
<g>
</g>
<g>
</g>
<g>
</g>
<g>
</g>
<g>
</g>
<g>
</g>
<g>
</g>
</svg>
