<?xml version="1.0" encoding="utf-8"?>
<!-- Generator: Adobe Illustrator 17.0.0, SVG Export Plug-In . SVG Version: 6.00 Build 0)  -->
<!DOCTYPE svg PUBLIC "-//W3C//DTD SVG 1.1//EN" "http://www.w3.org/Graphics/SVG/1.1/DTD/svg11.dtd">
<svg version="1.1" id="GLYPHICONS.com" xmlns="http://www.w3.org/2000/svg" xmlns:xlink="http://www.w3.org/1999/xlink" x="0px"
	 y="0px" width="17px" height="18px" viewBox="0 0 17 18" enable-background="new 0 0 17 18" xml:space="preserve">
<path fill-rule="evenodd" clip-rule="evenodd" fill="#F0F0F0" d="M8.5,1c-2.3,0-4.4,0.9-6,2.5C0.9,5.1,0,7.3,0,9.5
	c0,2.3,0.9,4.4,2.5,6c1.6,1.6,3.8,2.5,6,2.5c2.2,0,4.4-0.9,6.1-2.5c1.6-1.6,2.4-3.6,2.4-6c0-2.3-0.8-4.4-2.4-6
	C12.9,1.9,10.8,1,8.5,1z M8.5,2.5c1.9,0,3.6,0.7,4.9,2.1c1.3,1.3,2,3,2,4.9c0,1.9-0.7,3.6-2,4.9c-1.4,1.4-3.1,2.1-5,2.1
	c-1.8,0-3.6-0.7-4.9-2.1c-1.3-1.3-2.1-3.1-2.1-4.9c0-1.8,0.7-3.6,2.1-4.9C4.9,3.2,6.6,2.5,8.5,2.5z M7.3,8.7
	C7.1,8.2,6.7,8.1,6.5,8.1c-0.8,0-1.1,0.6-1.1,1.4c0,0.8,0.3,1.4,1.1,1.4c0.4,0,0.8-0.2,1-0.7l1,0.5C8,11.5,7.2,12,6.3,12
	c-1.4,0-2.4-0.9-2.4-2.5C3.9,7.9,5,7,6.3,7c0.9,0,1.7,0.3,2.1,1.2L7.3,8.7z M12,8.7c-0.2-0.5-0.7-0.6-0.9-0.6
	c-0.8,0-1.1,0.6-1.1,1.4c0,0.8,0.3,1.4,1.1,1.4c0.4,0,0.8-0.2,1-0.7l1,0.5c-0.4,0.8-1.2,1.2-2.1,1.2c-1.4,0-2.4-0.9-2.4-2.5
	c0-1.6,1-2.5,2.3-2.5c0.9,0,1.7,0.3,2.1,1.2L12,8.7z"/>
<path fill-rule="evenodd" clip-rule="evenodd" fill="#5E5E5E" d="M8.5,0c-2.3,0-4.4,0.9-6,2.5C0.9,4.1,0,6.3,0,8.5
	c0,2.3,0.9,4.4,2.5,6c1.6,1.6,3.8,2.5,6,2.5c2.2,0,4.4-0.9,6.1-2.5c1.6-1.6,2.4-3.6,2.4-6c0-2.3-0.8-4.4-2.4-6
	C12.9,0.9,10.8,0,8.5,0z M8.5,1.5c1.9,0,3.6,0.7,4.9,2.1c1.3,1.3,2,3,2,4.9c0,1.9-0.7,3.6-2,4.9c-1.4,1.4-3.1,2.1-5,2.1
	c-1.8,0-3.6-0.7-4.9-2.1c-1.3-1.3-2.1-3.1-2.1-4.9c0-1.8,0.7-3.6,2.1-4.9C4.9,2.2,6.6,1.5,8.5,1.5z M7.3,7.7
	C7.1,7.2,6.7,7.1,6.5,7.1c-0.8,0-1.1,0.6-1.1,1.4c0,0.8,0.3,1.4,1.1,1.4c0.4,0,0.8-0.2,1-0.7l1,0.5C8,10.5,7.2,11,6.3,11
	c-1.4,0-2.4-0.9-2.4-2.5C3.9,6.9,5,6,6.3,6c0.9,0,1.7,0.3,2.1,1.2L7.3,7.7z M12,7.7c-0.2-0.5-0.7-0.6-0.9-0.6
	c-0.8,0-1.1,0.6-1.1,1.4c0,0.8,0.3,1.4,1.1,1.4c0.4,0,0.8-0.2,1-0.7l1,0.5c-0.4,0.8-1.2,1.2-2.1,1.2c-1.4,0-2.4-0.9-2.4-2.5
	c0-1.6,1-2.5,2.3-2.5c0.9,0,1.7,0.3,2.1,1.2L12,7.7z"/>
<g>
</g>
<g>
</g>
<g>
</g>
<g>
</g>
<g>
</g>
<g>
</g>
<g>
</g>
<g>
</g>
<g>
</g>
<g>
</g>
<g>
</g>
<g>
</g>
<g>
</g>
<g>
</g>
<g>
</g>
<g>
</g>
<g>
</g>
<g>
</g>
<g>
</g>
<g>
</g>
</svg>
